<svg width="29" height="29" viewBox="0 0 29 29" fill="none" xmlns="http://www.w3.org/2000/svg">
<g clip-path="url(#clip0_164_422)">
<path d="M9.66667 19.3334H16.9167V16.9167H14.5V12.0834H9.66667V14.5001H12.0833V16.9167H9.66667V19.3334ZM2.41667 29.0001H9.66667V26.5834H7.25V21.7501H4.83333V26.5834H2.41667V29.0001ZM2.41667 21.7501H4.83333V19.3334H2.41667V21.7501ZM9.66667 26.5834H12.0833V24.1667H9.66667V26.5834ZM0 19.3334H2.41667V7.25008H0V19.3334ZM12.0833 24.1667H21.75V21.7501H12.0833V24.1667ZM2.41667 7.25008H4.83333V4.83341H2.41667V7.25008ZM21.75 21.7501H24.1667V19.3334H21.75V21.7501ZM12.0833 9.66675H14.5V7.25008H12.0833V9.66675ZM4.83333 4.83341H21.75V2.41675H4.83333V4.83341ZM24.1667 19.3334H26.5833V7.25008H24.1667V19.3334ZM21.75 7.25008H24.1667V4.83341H21.75V7.25008Z" fill="#004681"/>
</g>
<defs>
<clipPath id="clip0_164_422">
<rect width="29" height="29" fill="white"/>
</clipPath>
</defs>
</svg>
