<svg width="19" height="19" viewBox="0 0 19 19" fill="none" xmlns="http://www.w3.org/2000/svg">
<path d="M1.58333 17.4166H15.8333V7.91663H14.25V9.49996H11.0833V11.0833H14.25V12.6666H3.16667V11.0833H6.33333V9.49996H3.16667V7.91663H1.58333V17.4166ZM3.16667 15.8333V14.25H14.25V15.8333H3.16667ZM0 6.33329H1.58333V4.74996H0V6.33329ZM6.33333 9.49996H7.91667V7.91663H6.33333V9.49996ZM9.5 9.49996H11.0833V7.91663H9.5V9.49996ZM7.91667 7.91663H9.5V6.33329H7.91667V7.91663ZM7.91667 4.74996H9.5V3.16663H7.91667V4.74996ZM15.8333 6.33329H17.4167V4.74996H15.8333V6.33329Z" fill="white"/>
</svg>
