<svg width="30" height="30" viewBox="0 0 30 30" fill="none" xmlns="http://www.w3.org/2000/svg">
<g clip-path="url(#clip0_164_427)">
<path d="M0 25H2.5V22.5H5V20H7.5V17.5H10V15H7.5V12.5H5V10H2.5V7.5H5V10H7.5V12.5H10V15H12.5V17.5H15V15H17.5V12.5H20V10H22.5V7.5H25V10H22.5V12.5H20V15H17.5V17.5H20V20H22.5V22.5H25V25H27.5V5H0V25ZM2.5 27.5H25V25H22.5V22.5H20V20H17.5V17.5H15V20H12.5V17.5H10V20H7.5V22.5H5V25H2.5V27.5Z" fill="#004681"/>
</g>
<defs>
<clipPath id="clip0_164_427">
<rect width="30" height="30" fill="white"/>
</clipPath>
</defs>
</svg>
