<svg width="56" height="56" viewBox="0 0 56 56" fill="none" xmlns="http://www.w3.org/2000/svg">
<path d="M53.7031 35.6562V10.0781C53.7031 8.64292 52.5283 7.4375 51.0931 7.4375H37.3111C36.2953 7.4375 35.3726 8.05033 34.949 8.97356L33.559 12.0255C33.1354 12.9487 32.2127 13.5625 31.1969 13.5625H7.38697C5.95175 13.5625 4.8125 14.7028 4.8125 16.1382V39.8029C4.8125 41.2381 5.95175 42.4375 7.38697 42.4375H51.0931C51.1618 42.4375 51.2296 42.3981 51.2969 42.3929V47.3594H51.3343C51.3343 48.0156 51.8677 48.5227 52.5187 48.5227C53.1697 48.5227 53.7031 47.9794 53.7031 47.3284V35.6562Z" fill="#0074A8"/>
<path d="M52.5187 48.5227C51.8677 48.5227 51.3343 48.0156 51.3343 47.3594H51.2969V22.9885C51.2969 21.5532 50.166 20.3438 48.7308 20.3438H5.02469C3.58947 20.3438 2.40625 21.5532 2.40625 22.9885V49.1498C2.40625 50.5851 3.58947 51.7344 5.02469 51.7344H48.7308C48.8823 51.7344 49.0306 51.7278 49.175 51.7029C49.3543 51.7277 49.537 51.745 49.7232 51.745C51.9151 51.745 53.6756 49.9699 53.6756 47.7781C53.6756 47.7197 53.6716 47.6623 53.6692 47.6046C53.5438 48.1259 53.0748 48.5227 52.5187 48.5227Z" fill="#59CAFC"/>
</svg>
