<svg width="150" height="150" viewBox="0 0 150 150" fill="none" xmlns="http://www.w3.org/2000/svg">
<g clip-path="url(#clip0_164_1545)">
<path d="M25 150H50V137.5H37.5V125H25V112.5H12.5V100H25V112.5H37.5V125H50V112.5H62.5V100H37.5V87.5H25V50H37.5V25H50V37.5H87.5V25H100V50H112.5V87.5H100V100H75V112.5H87.5V150H112.5V137.5H125V125H137.5V37.5H125V25H112.5V12.5H25V25H12.5V37.5H0V125H12.5V137.5H25V150Z" fill="#383838"/>
</g>
<defs>
<clipPath id="clip0_164_1545">
<rect width="150" height="150" fill="white"/>
</clipPath>
</defs>
</svg>
