<svg width="29" height="29" viewBox="0 0 29 29" fill="none" xmlns="http://www.w3.org/2000/svg">
<g clip-path="url(#clip0_164_408)">
<path d="M9.66667 16.9167H12.0833V14.5001H14.5V12.0834H12.0833V9.66675H9.66667V16.9167ZM0 26.5834H2.41667V19.3334H0V26.5834ZM2.41667 29.0001H9.66667V26.5834H2.41667V29.0001ZM9.66667 26.5834H12.0833V24.1667H9.66667V26.5834ZM2.41667 19.3334H4.83333V16.9167H2.41667V19.3334ZM12.0833 24.1667H14.5V21.7501H12.0833V24.1667ZM4.83333 16.9167H7.25V14.5001H4.83333V16.9167ZM14.5 21.7501H16.9167V14.5001H14.5V16.9167H12.0833V19.3334H14.5V21.7501ZM19.3333 16.9167H21.75V14.5001H19.3333V16.9167ZM12.0833 9.66675H14.5V7.25008H12.0833V9.66675ZM21.75 14.5001H24.1667V12.0834H21.75V14.5001ZM14.5 7.25008H16.9167V4.83341H14.5V7.25008ZM24.1667 12.0834H26.5833V4.83341H24.1667V12.0834ZM16.9167 4.83341H24.1667V2.41675H16.9167V4.83341Z" fill="#004681"/>
</g>
<defs>
<clipPath id="clip0_164_408">
<rect width="29" height="29" fill="white"/>
</clipPath>
</defs>
</svg>
