<svg width="45" height="45" viewBox="0 0 45 45" fill="none" xmlns="http://www.w3.org/2000/svg">
<path d="M19.6266 19.2886H2.21655V41.5322L2.22235 41.5326C2.30638 42.857 3.40659 43.9053 4.75211 43.9053C5.97432 43.9053 6.99429 43.0406 7.23414 41.8896L19.6266 42.7719V19.2886Z" fill="#96A9B2"/>
<path d="M41.7414 7.99916H41.6213L37.262 4.23375V6.27642L37.2629 7.99916H36.7786L35.5514 3.70087V1.79707C35.5514 1.59532 35.4713 1.40184 35.3286 1.25918C35.186 1.11652 34.9925 1.03638 34.7908 1.03638H7.27422L7.28934 41.3696L7.28767 41.3713C7.28679 42.7709 6.15194 43.9052 4.7522 43.9052H39.9665C41.3668 43.9052 42.502 42.77 42.502 41.3696V8.75985C42.502 8.55812 42.4219 8.36465 42.2792 8.22199C42.1366 8.07934 41.9431 7.99918 41.7414 7.99916Z" fill="#E5E4DF"/>
<path d="M37.9276 17.6546H11.8088V16.894H37.9276V17.6546ZM37.9276 40.2062H11.8088V40.9669H37.9276V40.2062ZM15.6122 4.71899H11.8089V5.47969H15.6122V4.71899Z" fill="#96A9B2"/>
<path d="M25.5512 26.1346H11.8088V24.6133H25.5512V26.1346ZM25.5564 28.4166H11.814V29.9379H25.5564V28.4166ZM25.5564 32.2199H11.814V33.7412H25.5564V32.2199ZM25.5564 36.0232H11.814V37.5445H25.5564V36.0232ZM37.9328 36.0232H27.8385V37.5445H37.9328V36.0232Z" fill="#BFBCAF"/>
<path d="M33.1073 8.0522V11.1476H33.1019C33.0744 11.5426 32.7487 11.8555 32.3467 11.8555H12.5695C12.1676 11.8555 11.8418 11.5426 11.8142 11.1476H11.8088V8.0522C11.8088 7.85045 11.889 7.65696 12.0316 7.51431C12.1743 7.37165 12.3678 7.2915 12.5695 7.2915H32.3468C32.4467 7.2915 32.5456 7.31118 32.6378 7.34941C32.7301 7.38764 32.814 7.44368 32.8846 7.51432C32.9552 7.58496 33.0112 7.66882 33.0494 7.76111C33.0877 7.8534 33.1073 7.95231 33.1073 8.0522ZM12.5516 22.3313H24.8137C24.9112 22.3313 25.0078 22.3121 25.0979 22.2747C25.188 22.2374 25.2699 22.1827 25.3389 22.1137C25.4079 22.0448 25.4626 21.9629 25.4999 21.8728C25.5372 21.7826 25.5564 21.686 25.5564 21.5885V20.0314C25.5564 19.9339 25.5372 19.8373 25.4999 19.7472C25.4626 19.657 25.4079 19.5752 25.3389 19.5062C25.2699 19.4372 25.188 19.3825 25.0979 19.3452C25.0078 19.3079 24.9112 19.2887 24.8137 19.2887H12.5516C12.4541 19.2887 12.3575 19.3079 12.2673 19.3452C12.1772 19.3825 12.0953 19.4372 12.0264 19.5062C11.9574 19.5752 11.9027 19.657 11.8654 19.7472C11.828 19.8373 11.8088 19.9339 11.8088 20.0314V21.5885C11.8088 21.686 11.828 21.7826 11.8654 21.8728C11.9027 21.9629 11.9574 22.0448 12.0264 22.1137C12.0953 22.1827 12.1772 22.2374 12.2673 22.2747C12.3575 22.3121 12.4541 22.3313 12.5516 22.3313ZM37.9327 20.0491C37.9327 19.8474 37.8525 19.654 37.7099 19.5114C37.5673 19.3688 37.3738 19.2887 37.1721 19.2887L37.1709 19.2887L37.1708 19.2887H28.5972L28.5971 19.2887C28.3958 19.2893 28.2029 19.3696 28.0607 19.5121C27.9185 19.6547 27.8386 19.8478 27.8385 20.0491V32.9805C27.8385 33.1819 27.9184 33.375 28.0606 33.5176C28.2028 33.6602 28.3957 33.7405 28.5971 33.741L28.5972 33.7411H37.1708L37.1709 33.741L37.1721 33.7411C37.3739 33.7411 37.5674 33.661 37.71 33.5183C37.8527 33.3757 37.9328 33.1822 37.9328 32.9804L37.9327 20.0491Z" fill="#597B91"/>
<path d="M42.4201 8.41889H35.3713V1.31592L42.2676 8.21208L42.4201 8.41889Z" fill="#BFBCAF"/>
</svg>
