<svg width="53" height="53" viewBox="0 0 53 53" fill="none" xmlns="http://www.w3.org/2000/svg">
<path d="M43.8989 7.14258H33.2285V4.0044C33.2285 1.99671 31.6152 0.414062 29.6076 0.414062H23.3925C21.3847 0.414062 19.7715 1.99671 19.7715 4.0044V7.14258H9.10109C8.44015 7.14258 7.86719 7.68728 7.86719 8.34812V13.0779C7.86719 13.7388 8.44015 14.2852 9.10109 14.2852H10.3491C10.3469 14.3382 10.3516 14.3914 10.3516 14.4449V49.0258C10.3516 51.1063 12.0315 52.793 14.112 52.793H38.8881C40.9685 52.793 42.6484 51.1063 42.6484 49.0258V14.4449C42.6484 14.3913 42.6532 14.3382 42.6509 14.2852H43.8989C44.5597 14.2852 45.1328 13.7388 45.1328 13.078V8.34812C45.1328 7.68728 44.5599 7.14258 43.8989 7.14258ZM23.3945 4.03711H29.6055V7.14258H23.3945V4.03711Z" fill="#597B91"/>
<path d="M42.655 17.1414H10.3451V14.4448H42.6551V17.1414H42.655ZM18.9774 46.4138V22.2856C18.9774 22.0879 18.8988 21.8984 18.7591 21.7586C18.6193 21.6188 18.4297 21.5403 18.2321 21.5403H17.1712C16.9736 21.5403 16.784 21.6188 16.6442 21.7586C16.5044 21.8984 16.4259 22.0879 16.4259 22.2856V46.4139C16.4259 46.6115 16.5044 46.8011 16.6442 46.9409C16.784 47.0807 16.9736 47.1592 17.1712 47.1592H18.2321C18.3299 47.1592 18.4269 47.1399 18.5173 47.1024C18.6077 47.065 18.6899 47.0101 18.7591 46.9408C18.8283 46.8716 18.8832 46.7894 18.9207 46.699C18.9581 46.6086 18.9774 46.5116 18.9774 46.4138ZM27.7758 46.4138V22.2856C27.7758 22.0879 27.6973 21.8984 27.5575 21.7586C27.4177 21.6188 27.2281 21.5403 27.0305 21.5403H25.9696C25.772 21.5403 25.5824 21.6188 25.4426 21.7586C25.3028 21.8984 25.2243 22.0879 25.2243 22.2856V46.4139C25.2243 46.6115 25.3028 46.8011 25.4426 46.9409C25.5824 47.0807 25.772 47.1592 25.9696 47.1592H27.0305C27.1283 47.1592 27.2253 47.1399 27.3157 47.1024C27.4061 47.065 27.4883 47.0101 27.5575 46.9408C27.6267 46.8716 27.6816 46.7894 27.7191 46.699C27.7565 46.6086 27.7758 46.5116 27.7758 46.4138ZM36.5743 46.4138V22.2856C36.5743 22.0879 36.4958 21.8984 36.356 21.7586C36.2162 21.6188 36.0267 21.5403 35.829 21.5403H34.7682C34.5705 21.5403 34.3809 21.6188 34.2411 21.7586C34.1014 21.8984 34.0228 22.0879 34.0228 22.2856V46.4139C34.0228 46.6115 34.1014 46.8011 34.2411 46.9409C34.3809 47.0807 34.5705 47.1592 34.7682 47.1592H35.829C35.9269 47.1592 36.0238 47.1399 36.1142 47.1024C36.2047 47.065 36.2868 47.0101 36.356 46.9408C36.4252 46.8716 36.4801 46.7894 36.5176 46.699C36.555 46.6086 36.5743 46.5116 36.5743 46.4138Z" fill="#2B3B47"/>
</svg>
