<svg width="75" height="75" viewBox="0 0 75 75" fill="none" xmlns="http://www.w3.org/2000/svg">
<path d="M50 62.5H68.75V50H62.5V43.75H50V62.5ZM6.25 68.75H12.5V62.5H6.25V68.75ZM12.5 75H50V68.75H12.5V75ZM0 62.5H6.25V18.75H0V62.5ZM31.25 62.5H37.5V56.25H31.25V62.5ZM31.25 50H37.5V43.75H31.25V50ZM37.5 56.25H43.75V50H37.5V56.25ZM18.75 37.5H25V25H18.75V37.5ZM6.25 18.75H12.5V12.5H6.25V18.75ZM37.5 37.5H50V31.25H37.5V37.5ZM12.5 12.5H50V6.25H12.5V12.5ZM56.25 37.5H62.5V18.75H56.25V37.5ZM50 18.75H56.25V12.5H50V18.75Z" fill="#FF7262"/>
</svg>
